<?xml version="1.0" encoding="UTF-8" standalone="no"?>
<!-- Created with Inkscape (http://www.inkscape.org/) -->

<svg
   width="178.47974mm"
   height="265.14743mm"
   viewBox="0 0 178.47973 265.14743"
   version="1.1"
   id="svg35"
   xml:space="preserve"
   inkscape:version="1.2.2 (b0a8486, 2022-12-01)"
   sodipodi:docname="Roc a Fella.svg"
   xmlns:inkscape="http://www.inkscape.org/namespaces/inkscape"
   xmlns:sodipodi="http://sodipodi.sourceforge.net/DTD/sodipodi-0.dtd"
   xmlns="http://www.w3.org/2000/svg"
   xmlns:svg="http://www.w3.org/2000/svg"><sodipodi:namedview
     id="namedview37"
     pagecolor="#ffffff"
     bordercolor="#000000"
     borderopacity="0.25"
     inkscape:showpageshadow="2"
     inkscape:pageopacity="0.0"
     inkscape:pagecheckerboard="0"
     inkscape:deskcolor="#d1d1d1"
     inkscape:document-units="mm"
     showgrid="false"
     inkscape:zoom="0.2102413"
     inkscape:cx="128.42386"
     inkscape:cy="499.42613"
     inkscape:window-width="1280"
     inkscape:window-height="456"
     inkscape:window-x="0"
     inkscape:window-y="25"
     inkscape:window-maximized="0"
     inkscape:current-layer="layer1" /><defs
     id="defs32" /><g
     inkscape:label="Layer 1"
     inkscape:groupmode="layer"
     id="layer1"
     transform="translate(15.684447,64.444568)"><path
       style="fill:#010101;stroke:none;stroke-width:0.264583"
       d="m 30.77344,-39.720973 1.5875,-12.964583 c -4.264289,-0.387879 -4.853781,3.973512 -6.085416,7.14375 H 26.01094 v -1.322917 c -1.358635,0.451909 -1.414462,1.690159 -1.83515,2.910417 -0.982133,2.849562 -1.845998,5.677694 -3.038739,8.466667 -3.110442,7.273131 -7.575551,13.724466 -14.969861,17.201885 -4.9485022,2.327275 -11.8932856,-2.26695 -7.2845084,-7.384521 1.82588956,-2.027767 5.5099479,-2.2987 8.0782584,-2.409031 -0.3257021,-1.113631 -1.3499042,-1.045634 -2.38125,-1.058334 v -0.264583 c 3.9682208,-1.131887 7.729273,-2.214033 11.90625,-2.116667 -0.666221,-4.215606 -9.1275958,-3.799416 -12.1708334,-3.452812 -8.6455251,0.984515 -14.7089816,7.219421 -18.6732336,14.610292 -1.950508,3.636962 -2.237581,10.124016 2.533915,11.7956535 2.6701747,0.9353021 4.9625247,0.4389438 7.6726518,0.327025 3.22421259,-0.1330854 6.424348,-1.8110725 9.2604168,-3.2006645 4.4042543,-2.157942 7.4535774,-5.145352 11.3770834,-7.90866 C 9.2509088,-7.8844544 6.9979817,8.0826205 7.6067879,21.397777 7.8338004,26.362683 9.6856192,31.38712 8.0020754,36.214443 7.5440817,37.52757 7.4038525,39.404524 6.16719,40.183193 l 0.5291667,0.529167 c -2.8127855,6.500812 -3.843073,13.927666 -6.25210429,20.637499 -0.9019646,2.511955 -3.02577501,6.901921 -2.47914591,9.525 4.5561251,-0.883973 10.3491773,-1.909233 14.5179525,-3.959754 1.819275,-0.894821 5.107517,-3.829314 7.396427,-2.826014 1.745985,0.765175 3.102769,3.768195 4.314825,5.198268 3.366823,3.972719 6.832336,7.531629 10.767484,10.937346 1.12051,0.969698 4.472516,4.523581 6.095206,3.836723 1.126067,-0.476779 1.756569,-2.634192 2.241814,-3.661569 1.541198,-3.264958 3.366823,-6.370902 5.115455,-9.525 2.555081,-4.607718 5.533496,-8.957997 8.195733,-13.497718 0.815975,-1.390915 2.680758,-3.900223 2.600061,-5.552281 C 59.092324,49.415299 55.66597,46.575791 54.340936,44.670791 49.503824,37.715953 44.624643,30.74286 39.750224,23.802574 38.347403,21.805235 37.065497,19.747835 35.742845,17.69361 c -0.439738,-0.683154 -1.531673,-1.7272 -1.485636,-2.589477 0.03757,-0.698765 1.023144,-1.078706 1.543579,-1.350433 1.875367,-0.979753 3.737504,-1.895475 5.566305,-2.963598 4.93686,-2.8829003 9.478698,-6.4219669 13.513064,-10.4666523 1.948657,-1.9534187 3.659188,-5.4168145 6.055784,-6.7069228 0.411162,-3.09245 3.577166,-6.7376149 5.071533,-9.5249999 2.516717,-4.693973 4.462198,-9.958917 5.873486,-15.08125 0.788987,-2.863321 1.426633,-6.030912 1.710002,-8.995833 0.323585,-3.385608 0.779727,-7.27075 -1.116542,-10.308431 -2.882635,-4.618038 -10.866438,-3.67665 -14.978063,-1.535642 -5.647002,2.940315 -9.331589,8.563504 -12.787312,13.696156 -2.777596,4.125383 -4.429919,9.269413 -6.53759,13.758333 -8.191236,17.4455669 -13.183659,35.403896 -16.013113,54.428496 -1.179248,7.929562 -1.716087,16.009937 -3.005402,23.88817 -0.372533,2.277798 0.482336,5.897563 -0.634471,7.902311 -0.735806,1.321064 -2.829718,1.522412 -4.149196,1.884362 -3.993356,1.09564 -8.3190289,2.767542 -12.4354164,3.17791 L 10.853225,37.53736 21.384701,-9.5584731 25.316409,-28.608473 26.80469,-37.075139 h -0.264583 c -5.361517,9.682162 -11.6967,20.296451 -22.7541671,23.899812 -3.79306667,1.236133 -9.4633522,2.433373 -12.7883709,-0.560652 -7.151688,-6.439429 2.4304625,-16.577998 8.8196209,-18.851563 4.4976521,-1.600464 9.4276335,-0.451643 14.0229171,-0.254264 v 0.264583 c -5.8009899,0 -13.41067126,1.387211 -16.6335609,6.879431 -4.1812105,7.125494 3.79015631,10.9982 9.7543939,8.663781 8.942652,-3.500172 14.84339,-13.891947 18.625609,-22.157795 1.14882,-2.510896 2.016654,-5.271029 2.713037,-7.9375 0.4318,-1.652323 0.697706,-3.345127 2.473854,-3.96875 0,4.280958 -1.112308,8.466667 -1.542256,12.7 -1.684602,16.580643 -6.084623,32.7244599 -6.13066,49.477083 h 0.529166 c 1.060979,-7.8798211 4.134909,-15.8673272 6.902715,-23.283333 5.369983,-14.3891 11.885348,-30.045554 22.016244,-41.804431 6.204744,-7.201773 18.171848,-12.191444 25.549754,-4.46704 1.206236,1.262989 2.055548,2.780877 2.524125,4.467304 1.624542,5.845704 0.780786,11.404865 -0.524404,17.197917 -2.954337,13.111956 -9.672108,25.210029 -19.073548,34.8601766 -3.418681,3.5091687 -7.752027,6.1354228 -11.730302,8.9484728 -1.144588,0.8093604 -3.802327,1.8354145 -4.144169,3.3146996 -0.547687,2.370932 2.986881,7.41045 4.100777,9.497484 2.596886,4.864893 5.052484,9.844087 7.930886,14.552083 1.752864,2.867025 4.466431,6.287558 5.341673,9.525 1.236133,-0.44159 2.816225,-3.187965 2.307166,-4.497917 -0.634206,-1.631156 -2.438135,-2.934758 -3.550708,-4.233333 -2.030413,-2.369873 -3.657865,-5.014648 -4.75615,-7.9375 -4.199467,-11.175471 1.880394,-27.26928113 13.937192,-30.7580769 2.83845,-0.8212667 5.294842,-1.1628438 8.202083,-0.5815542 19.604303,3.92033122 25.867516,31.1287581 9.789584,43.2863621 -4.631267,3.502025 -10.892632,3.469481 -16.404167,3.399102 -0.532606,2.828396 -1.104106,5.638271 -1.609725,8.466667 -0.194998,1.090083 -0.85725,2.326216 -0.680773,3.439583 0.412221,2.601383 3.626908,5.870575 5.196946,7.9375 3.414183,4.494477 6.101556,9.531879 9.528969,14.022916 -6.155532,-3.205427 -9.295871,-11.358297 -15.610417,-14.2875 0,8.334375 2.44475,17.333648 4.568031,25.4 0.496358,1.885421 0.629444,6.970448 2.205302,8.194675 0.74639,0.579967 2.392363,0.271992 3.280834,0.271992 3.180291,0 6.119283,-0.5207 9.260416,-0.813859 16.627206,-1.552575 31.815086,-12.406577 41.661556,-25.39021 21.1082,-27.833901 20.42742,-67.4237698 1.93728,-96.298013 -7.69752,-12.02055 -19.63764,-22.348296 -33.015502,-27.486504 -4.202906,-1.614197 -8.593667,-2.720525 -12.964584,-3.761079 -1.703916,-0.405659 -4.038071,0.0725 -5.545931,-0.92665 -2.813579,-1.864439 -3.762375,-4.597241 -7.418652,-5.426181 -9.156171,-2.075973 -17.114309,5.463038 -23.094157,11.055033 -3.155156,2.950368 -7.762346,4.88315 -11.297708,7.421298 -2.506663,1.799431 -4.888442,4.617243 -7.676886,5.894916 m -29.1041667,14.2875 -0.2645834,0.79375 0.2645834,-0.79375 m 58.7375007,10.31875 -0.264583,0.264583 0.264583,-0.264583 m -5.55625,0.264583 -0.264583,0.264584 0.264583,-0.264584 m 0.529167,0 -0.264584,0.264584 0.264584,-0.264584 m 32.02596,1.437746 c 2.888986,-0.832379 4.628092,3.6075938 1.826155,4.511675 -3.127905,1.0093855 -4.838965,-3.643577 -1.826155,-4.511675 m -3.964781,4.0134646 c 2.622815,-1.0477496 5.024702,2.8739042 2.06719,4.1028937 -2.679965,1.1138959 -4.682596,-3.0580541 -2.06719,-4.1028937 m -5.041371,7.3974854 c -4.380177,1.10172496 -2.383366,7.6453999 1.847057,6.4772645 4.042568,-1.1162771 2.293143,-7.5189291 -1.847057,-6.4772645 m 2.634457,8.2076395 c -5.80099,1.462352 -3.956844,11.0889515 2.126985,9.6226315 5.8801,-1.417109 3.726656,-11.0984773 -2.126985,-9.6226315 m 4.508235,3.8144975 -0.264583,0.264584 0.264583,-0.264584 m 0.79375,1.322917 -1.852083,0.79375 1.852083,-0.79375 m -11.90625,13.49375 c 1.183481,0.09022 2.27965,0.236008 3.439583,-0.140758 5.362575,-1.742282 0.279665,-8.555038 -4.23201,-5.884334 -3.307557,1.957917 -0.656961,4.636029 -1.182423,7.348009 -1.180042,6.090972 -3.9751,12.103364 -6.538913,17.727083 -5.582444,12.244916 -13.67499,23.020337 -19.861477,34.924999 -3.832225,7.373938 -6.256338,15.785306 -8.262938,23.812501 -1.077648,4.31059 -2.386541,8.60107 -3.171825,12.96458 -0.366977,2.03915 -1.048279,4.28678 -0.462491,6.35 0.625475,2.20398 2.040731,4.12671 3.529806,5.81687 7.271279,8.25367 17.409848,8.21213 27.217688,4.94294 4.814623,-1.60496 10.018448,-4.0214 11.882437,-9.17231 1.980142,-5.47211 -0.565414,-10.25234 -1.488016,-15.61041 -1.596496,-9.271798 -3.843073,-18.611325 -5.958682,-27.781254 -0.978429,-4.240742 -2.640541,-8.885237 -2.837921,-13.229167 -0.423333,-9.330266 1.328209,-18.689108 4.335992,-27.516666 0.845873,-2.482321 1.964796,-4.82256 3.175,-7.14375 0.541338,-1.03796 1.637507,-2.248164 1.819011,-3.416035 0.184943,-1.187715 -1.385623,-2.532327 -1.402821,-3.992298 m 40.481249,8.202083 -0.26458,0.264583 0.26458,-0.264583 m -70.114583,0.264583 0.79375,1.322917 -1.5875,0.529167 h -0.264583 l -0.79375,-1.058334 1.852083,-0.79375 m -0.529167,0.529167 0.264584,0.264583 -0.264584,-0.264583 m 2.645834,3.96875 1.5875,0.529167 v 0.264583 l -1.058333,-0.529167 c -1.837003,1.151732 -2.351088,-0.602985 -1.852084,-2.116666 1.040606,0.275166 1.246717,0.817298 1.322917,1.852083 m -0.79375,-1.5875 0.264583,0.264583 -0.264583,-0.264583 m 22.225,6.879167 c -0.289189,6.716712 -4.723342,12.302331 -4.209521,19.314583 1.176338,16.046979 8.409252,31.885731 7.095332,48.154167 -0.516467,6.39154 -6.894248,10.21927 -12.939978,8.71987 -3.367616,-0.83529 -6.356879,-4.20899 -8.367712,-6.86673 -4.661165,-6.16056 -7.775311,-12.06262 -4.522523,-19.580224 1.010708,-2.336271 2.921264,-7.017544 5.750454,-7.599098 3.773488,-0.775494 7.700433,4.242858 7.745413,7.599098 0.08546,6.405562 -4.397905,10.425114 -8.278548,14.816664 2.028295,0.34687 3.454135,-1.49092 5.027083,-2.53285 4.54369,-3.00885 10.307108,-6.686289 11.036829,-12.548398 0.410634,-3.29856 -0.701675,-6.40662 -1.625864,-9.524999 -1.034786,-3.491707 -1.756834,-7.074959 -2.728913,-10.583334 -0.845344,-3.049852 -2.183077,-6.585479 -2.090208,-9.789583 0.123031,-4.24815 2.930789,-9.247981 4.811448,-12.964583 1.073414,-2.121165 1.654175,-4.857221 3.296708,-6.614583 m 73.554166,127.52916 c 1.14141,0 3.45916,0.43948 4.33917,-0.42412 1.26338,-1.2401 0.10319,-3.57082 2.54106,-3.79386 0.93133,-0.0852 2.71409,-0.37095 3.51155,0.21696 0.98583,0.72654 0.57891,2.20768 1.27344,3.12314 0.65934,0.86862 4.49421,1.08664 5.31257,0.34131 0.89085,-0.81095 -0.35534,-4.78711 -0.6858,-5.81342 -1.48511,-4.61037 -2.18996,-9.57131 -3.31709,-14.2875 -0.28522,-1.19248 -0.46064,-4.22117 -1.68089,-4.83077 -0.88212,-0.44053 -4.82415,-0.25638 -5.46603,0.52917 -1.06865,1.3081 -0.9099,4.2836 -1.40573,5.8891 -1.22714,3.97483 -1.96453,8.11873 -2.92365,12.17083 -0.53313,2.25107 -1.44912,4.55427 -1.4986,6.87916 m -24.60625,-3.70416 v -8.99583 -5.82084 c 0,-1.53035 0.43418,-4.631 -0.35586,-5.96688 -0.52732,-0.89138 -4.04707,-0.64929 -4.53126,0.23019 -0.77099,1.39964 -0.0108,3.95737 0.0693,5.47211 0.23628,4.45982 0.0553,9.01277 0.0553,13.49375 0,1.19539 -0.59452,4.70191 0.42413,5.50889 1.72402,1.36525 7.02363,0.073 9.10087,0.0484 0.83159,-0.0101 2.31696,0.28019 3.01546,-0.27305 0.73713,-0.58367 0.69426,-3.10251 -0.18918,-3.53722 -0.94059,-0.46275 -2.59424,-0.16907 -3.62003,-0.15848 -1.32927,0.0138 -2.63922,0.0228 -3.96875,-10e-4 m -65.881249,5.02708 c 1.118658,0 3.452283,0.44291 4.301595,-0.42413 1.328209,-1.35599 -0.116945,-4.60957 2.58154,-4.85192 0.917046,-0.0825 2.332302,-0.20664 3.091127,0.40851 1.353079,1.09723 0.705644,3.3528 2.036234,4.44341 0.790575,0.6477 2.12037,0.42598 3.070754,0.42413 0.591079,-0.001 1.458119,0.12409 1.957123,-0.27199 1.080029,-0.85751 -0.261673,-4.64926 -0.505619,-5.81343 -1.046692,-4.99692 -1.990196,-10.19174 -3.434556,-15.08124 -0.39423,-1.3343 -0.191823,-3.94918 -1.516857,-4.7551 -1.032668,-0.62812 -4.733925,-0.30453 -5.310187,0.8255 -1.392238,2.73024 -1.636713,6.52436 -2.431786,9.48585 -1.310216,4.88023 -3.720835,10.54443 -3.839368,15.61041 m 43.65625,-0.79375 14.287499,0.26458 c 1.7526,-5.92904 -3.5261,-4.25211 -7.40833,-4.23359 -1.10966,0.005 -2.965452,0.29554 -3.355448,-1.08691 -1.419754,-5.03052 2.750078,-4.46881 6.265858,-4.46908 1.0377,0 3.00355,0.31671 3.24935,-1.08717 0.0733,-0.4191 -0.0278,-0.87418 -0.0516,-1.29408 -0.25188,-4.43309 -4.24551,-0.6723 -6.81778,-2.38866 -1.252013,-0.83529 -0.61331,-4.47569 -0.61331,-5.81342 l 8.73125,-0.26458 -0.42413,-4.70483 -3.01545,-0.0579 -8.202086,2.7e-4 -3.147747,0.64399 0.237331,6.23517 0.264583,18.25625 m 31.749999,-0.52917 c 3.32767,0.61781 6.7019,-0.005 10.05417,0 0.91043,0.001 2.7469,0.46726 3.1914,-0.59346 2.39872,-5.72399 -7.02495,-1.10754 -7.86976,-4.18465 -1.16258,-4.23333 -0.30454,-9.88959 -0.34978,-14.27188 -0.0127,-1.23217 0.42201,-4.42172 -0.31486,-5.39671 -0.86042,-1.1385 -4.61856,-0.6305 -4.82415,0.91334 -0.29818,2.23547 0.11298,4.85272 0.11298,7.1292 v 16.40416 M -6.5328102,162.68528 c 1.2758209,-0.16114 4.4161605,-0.95224 5.2842584,0.34872 1.38456462,2.07486 -1.6147521,9.38159 1.86081462,9.68983 0.93292088,0.0828 2.82125208,0.31327 3.54330008,-0.40852 0.7998354,-0.8001 0.38735,-2.63763 0.3741208,-3.6568 -0.046831,-3.57452 -0.2465917,-7.7724 -4.18332713,-9.14823 0.80168753,-0.83053 1.83515003,-1.37055 2.43257923,-2.39184 1.7809104,-3.04429 1.6552333,-8.70982 -1.90738131,-10.46612 -1.98754999,-0.98002 -3.99282709,-0.47308 -6.08144799,-0.38153 -1.4136688,0.0619 -5.1413835,-0.67971 -6.1653205,0.43445 -0.969169,1.05489 -0.243946,4.57729 -0.194205,5.92587 0.168805,4.58867 0.274109,9.16543 0.274109,13.75833 0,1.55813 -0.535252,4.32435 0.159544,5.7367 0.461168,0.93715 3.7136912,0.96837 4.3309641,0.18917 0.7733771,-0.97657 0.2719917,-3.67347 0.2719917,-4.86754 v -4.76249 m 53.1812502,0.26458 v -3.96875 c -1.247775,0 -3.615002,-0.43683 -4.602956,0.49159 -0.719931,0.67654 -0.293423,1.83912 -1.257035,2.41142 -0.821796,0.48815 -1.975909,0.0699 -2.711715,0.76358 -0.784754,0.73978 -0.130704,2.01666 -0.696119,2.86385 -0.671512,1.00648 -4.234127,0.89509 -5.2451,0.45376 -1.501246,-0.65563 -0.751152,-4.06267 -0.908314,-5.3967 -0.218811,-1.85261 -1.37504,-7.80786 0.159543,-9.10087 1.078442,-0.90858 3.612886,-0.42413 4.942946,-0.42413 0.0209,1.01124 -0.05741,3.5052 0.545836,4.30159 0.585523,0.77285 4.149196,0.81413 4.734719,0.0368 0.61251,-0.81333 -0.134144,-2.67123 -0.35269,-3.54462 -1.06971,-4.27196 -4.760383,-6.7654 -9.161198,-5.47582 -7.376319,2.16138 -7.948613,10.99132 -6.917267,17.11749 0.647965,3.84889 2.701132,8.2669 7.106444,8.66695 3.671094,0.33338 6.935788,-0.52361 8.526463,-4.16904 0.532077,-1.21973 0.502708,-3.72692 1.491456,-4.61327 0.937948,-0.84058 3.167856,-0.41381 4.344987,-0.41381 m 35.718751,0 c 2.294467,0 6.5913,0.83793 8.648171,-0.19632 1.060714,-0.5334 1.170252,-4.1574 0.226483,-4.82309 -2.059781,-1.45336 -6.479381,1.51791 -8.451321,-0.4318 -0.65405,-0.64691 -0.459846,-1.91532 -0.54901,-2.75087 -0.111654,-1.04908 -0.493977,-3.21469 0.305064,-4.07379 0.606955,-0.6522 1.934634,-0.42307 2.73103,-0.42413 2.477558,-0.003 4.935802,-0.26432 7.408333,-0.26458 0,-0.94324 0.345546,-2.7649 -0.271992,-3.54463 -0.492918,-0.62256 -1.681427,-0.42386 -2.373841,-0.42412 -2.216944,-0.001 -4.429655,0 -6.645275,0.068 -1.213644,0.0373 -5.018088,-0.33046 -5.441421,1.05066 -0.657225,2.14339 -0.06879,5.40015 0.135731,7.61286 0.310356,3.36021 0.195527,6.95219 0.06694,10.31849 -0.05371,1.40969 -0.398463,5.02549 0.51435,6.15367 0.600075,0.74163 3.088481,0.75909 3.537214,-0.1524 0.949854,-1.93066 0.159544,-5.9682 0.159544,-8.11794 M 12.51719,146.4425 c -5.5136521,1.41261 -6.0613396,5.90603 -6.3735479,10.68653 -0.4696355,7.19693 1.1514666,17.66993 10.8714649,15.32757 3.840956,-0.92578 5.488252,-5.47343 5.864754,-8.97757 0.643996,-5.99282 1.227667,-17.15532 -7.452254,-17.19766 -0.961232,-0.005 -1.971411,-0.0796 -2.910417,0.16113 m -20.6375002,11.48028 v -6.87917 c 1.3073063,0 4.3396959,-0.56515 5.3967063,0.27199 0.8220604,0.65114 0.885825,5.74596 0.043656,6.33518 -1.2123209,0.84826 -4.0322501,0.32862 -5.4403626,0.272 m 160.3375005,3.175 -4.23333,-0.26459 1.85208,-9.78958 c 2.27568,0.75459 2.38125,7.93115 2.38125,10.05417 M 17.808857,152.89569 c -0.616479,3.32026 -0.528902,6.94584 -0.529167,10.31875 0,1.03955 0.408517,3.21469 -0.271992,4.07379 -0.808831,1.02103 -5.14297,0.49689 -5.653881,-0.67336 -0.621771,-1.42478 -0.162983,-3.72692 -0.179387,-5.25251 -0.03466,-3.25649 -0.24474,-6.52013 -0.24474,-9.78958 l 6.879167,1.32291 m 41.804167,-0.52916 h 0.264583 l 1.322917,8.99583 h -3.439583 l 1.852083,-8.99583 m 8.466667,6.61458 v 4.23333 h 4.7625 v -4.23333 h -4.7625 m -8.73125,32.27916 c -1.413669,-0.003 -3.640932,-0.74612 -4.942946,-0.10583 -1.051719,0.51858 -0.252677,2.0955 -1.226609,2.74373 -1.042987,0.69585 -7.406746,0.83344 -8.374062,0.0318 -0.81624,-0.67733 -0.537634,-2.26748 -0.537634,-3.19881 v -8.99584 h 7.937501 v 3.70417 c 3.737768,1.10596 9.445889,0.47361 5.859727,-4.47331 -1.400704,-1.93119 -3.907102,-2.70616 -6.124311,-3.14669 -7.542212,-1.49913 -18.188252,4.3389 -15.367265,13.39586 1.942307,6.23622 8.594196,9.37418 14.838099,8.01158 4.28916,-0.93398 7.923741,-3.12473 7.9375,-7.96661 m 12.964583,-13.64588 c -3.082925,0.39105 -6.736292,1.04934 -8.85481,3.61632 -3.510492,4.25371 -1.851819,13.14106 2.352675,16.27638 3.05726,2.28071 6.871758,2.36802 10.470885,1.91293 7.558088,-0.9525 11.57314,-11.15747 7.527661,-17.4199 -2.398184,-3.71263 -7.309909,-4.91675 -11.496411,-4.38573 m 22.489584,13.64588 c 1.616075,0 4.887119,-0.62706 6.269562,0.27253 1.42479,0.92604 1.13851,6.07218 1.13877,7.66497 l 7.14375,0.26459 c 0.61092,-4.83394 0.49662,-9.13342 -4.7625,-10.84792 3.55997,-2.33098 6.16876,-7.7171 0.79375,-10.18169 -3.42186,-1.56872 -7.711809,-0.93081 -11.377082,-0.93081 -1.525323,0 -4.637617,-0.57785 -5.936192,0.33311 -0.979223,0.68712 -0.669925,3.61051 -0.64426,4.69397 0.09313,3.96082 0.446881,7.95073 0.493977,11.90625 0.01376,1.16153 -0.474398,3.64596 0.27305,4.60375 0.678391,0.87048 5.663141,0.84667 6.335183,0 0.548746,-0.6932 0.271992,-2.19075 0.271992,-3.01625 0,-1.5875 -0.07514,-3.17764 0,-4.7625 m 21.960412,-13.64615 c -1.01467,0.13335 -3.05435,-0.19632 -3.69675,0.76571 -0.76359,1.14326 -0.28628,3.3819 -0.27305,4.67836 0.0391,3.79413 0.26405,7.59354 0.26564,11.37708 5.3e-4,1.25413 -0.48472,3.82588 0.31194,4.87098 0.74084,0.97102 2.87549,0.66675 3.94494,0.65882 3.76052,-0.0291 7.8994,0.17462 11.61812,-0.31486 8.29971,-1.09273 10.03168,-11.93006 5.32103,-17.6268 -3.96504,-4.79425 -11.74882,-5.16335 -17.49187,-4.40929 m 29.89792,18.14407 c -0.003,-4.04019 -4.38414,-2.38125 -7.40833,-2.38125 0.65378,7.43215 11.07334,7.22577 16.40417,6.46113 2.40532,-0.34661 4.65402,-0.8943 6.06716,-3.06652 0.51726,-0.7964 0.80909,-1.66953 0.96017,-2.60086 1.17819,-7.26546 -7.27816,-8.19414 -12.58358,-8.20208 -1.55417,-0.003 -5.13874,0.58473 -5.70601,-1.33615 -1.17739,-3.98833 4.21005,-2.84506 6.49976,-2.90115 0.9861,-0.0241 2.21059,-0.4699 3.15938,-0.10002 1.1266,0.43948 0.92658,1.96665 2.16112,2.18096 1.05251,0.18521 3.82641,0.44186 4.29895,-0.79322 1.13374,-2.96148 -2.81808,-4.52146 -4.85695,-5.05804 -6.22486,-1.63883 -18.47216,-0.4691 -16.84629,8.53678 0.86783,4.80748 8.59684,4.93184 12.34837,5.02444 1.75577,0.0423 4.7916,-0.96044 5.01147,1.59015 0.35745,4.14866 -6.67808,2.64583 -9.50939,2.64583 M -4.9453102,192.05402 c 1.5689792,-0.29104 5.74489803,-1.016 7.0186022,0.15875 1.1882438,1.09803 0.8855604,6.17009 0.9188979,7.77875 1.3980584,0 5.9568293,0.73025 6.8717585,-0.42333 0.5487456,-0.69321 0.2719916,-2.19075 0.2719916,-3.01625 -2.65e-4,-3.57717 -1.5348479,-7.05908 -5.55625,-7.14375 1.1247437,-1.13771 2.8376562,-1.52664 3.7457063,-2.921 0.4482041,-0.68792 0.6683375,-1.56633 0.7926916,-2.37067 1.0969621,-7.09453 -7.9054855,-6.19336 -12.2113147,-6.08938 -1.8208625,0.0442 -6.3169272,-0.84138 -7.7779562,0.31591 -0.963877,0.76332 -0.424127,3.8616 -0.424127,4.97972 0,4.15132 -0.03334,8.29469 0.229129,12.43542 0.06668,1.05304 -0.384704,3.45017 0.30824,4.30213 0.733954,0.90223 5.3117746,0.85725 5.9219038,-0.15346 0.9649354,-1.59544 0.2243666,-6.05631 -0.109273,-7.85284 M 13.575523,178.29569 c -0.110066,5.33136 -0.576791,11.09133 0.112184,16.40417 0.162983,1.25677 -0.427302,3.85498 0.576527,4.79954 1.080823,1.016 3.798358,0.4789 5.132123,0.37042 3.502819,-0.28046 7.068608,-0.14288 10.583333,-0.14288 1.396736,0 3.637227,0.28311 4.901936,-0.42333 0.756973,-0.42069 0.688181,-3.78354 -0.0344,-4.24656 -0.89244,-0.5715 -3.280569,-0.0926 -4.338373,-0.0926 H 26.01094 18.86719 v -4.23333 c 2.989527,0 6.06769,0.14552 9.040813,-0.17463 0.828939,-0.09 2.286,0.17992 2.970477,-0.36248 0.869685,-0.68791 0.728133,-3.01889 -0.405077,-3.34698 -2.521479,-0.73289 -6.313752,-0.0635 -8.960379,-0.0847 -0.05689,-1.10331 -0.475457,-3.73724 0.2413,-4.60296 1.191154,-1.43827 6.750314,-0.68871 8.48995,-0.68871 0.738981,0 2.072216,0.24024 2.598473,-0.42413 0.605366,-0.76438 0.311943,-2.36431 0.311943,-3.28004 -6.260835,0 -13.430779,-0.61224 -19.579167,0.52917 m 86.254168,3.43958 c 0.0463,1.24434 0.747709,3.80736 -0.05397,4.86834 -0.844285,1.11654 -5.744898,0.56621 -7.089775,0.42333 l -0.264583,-5.02708 7.408333,-0.26459 m -98.95416776,0.52917 c -0.0164042,1.30969 0.55218546,4.35504 -0.27199167,5.3975 -0.93503751,1.18004 -5.70124177,0.42333 -7.13634177,0.42333 0,-1.35731 -0.5953125,-4.5667 0.2719917,-5.66128 0.8167687,-1.03056 5.83432714,-0.37042 7.13634174,-0.15955 M 68.873441,194.69986 c -0.20664,-2.63525 -0.0598,-5.31284 -0.309563,-7.9375 -0.111389,-1.17211 -0.628385,-3.00567 -0.06006,-4.11851 0.418571,-0.81862 1.503892,-0.48868 2.221706,-0.42412 1.632215,0.14684 5.474759,-0.32888 6.641836,1.03161 0.5715,0.66675 0.246856,1.91823 0.238389,2.71727 -0.02275,2.13254 -0.131233,4.23069 -0.286279,6.35 -0.05953,0.81756 0.113771,2.08491 -0.647435,2.63789 -1.553898,1.13242 -5.998369,-0.0291 -7.798594,-0.25664 m 51.064579,0.79375 -0.26458,-12.17084 c 1.79441,0 6.12246,-0.6297 7.59275,0.27517 1.66952,1.02923 0.8845,7.22313 0.81915,8.98525 -0.0273,0.73554 0.28813,2.11402 -0.36962,2.6379 -1.43431,1.14564 -5.99599,0.27781 -7.7777,0.27252 z"
       id="path204" /></g></svg>
